<?xml version="1.0" encoding="UTF-8" standalone="no"?>
<!-- Created with Inkscape (http://www.inkscape.org/) -->

<svg
   xmlns:dc="http://purl.org/dc/elements/1.1/"
   xmlns:cc="http://creativecommons.org/ns#"
   xmlns:rdf="http://www.w3.org/1999/02/22-rdf-syntax-ns#"
   xmlns:svg="http://www.w3.org/2000/svg"
   xmlns="http://www.w3.org/2000/svg"
   xmlns:sodipodi="http://sodipodi.sourceforge.net/DTD/sodipodi-0.dtd"
   xmlns:inkscape="http://www.inkscape.org/namespaces/inkscape"
   width="81.247063mm"
   height="13.111157mm"
   viewBox="0 0 287.88329 46.456857"
   id="svg3994"
   version="1.1"
   inkscape:version="0.91 r13725"
   inkscape:export-filename="/home/andy/Desktop/dashboard-logo.png"
   inkscape:export-xdpi="63.842323"
   inkscape:export-ydpi="63.842323"
   sodipodi:docname="nectar-cloud-logo.svg">
  <defs
     id="defs3996">
    <clipPath
       clipPathUnits="userSpaceOnUse"
       id="clipPath106">
      <path
         d="m 0,0 841.89,0 0,595.276 L 0,595.276 0,0 Z"
         id="path108"
         inkscape:connector-curvature="0" />
    </clipPath>
    <clipPath
       clipPathUnits="userSpaceOnUse"
       id="clipPath80">
      <path
         d="m 0,0 841.89,0 0,595.276 L 0,595.276 0,0 Z"
         id="path82"
         inkscape:connector-curvature="0" />
    </clipPath>
  </defs>
  <sodipodi:namedview
     id="base"
     pagecolor="#ffffff"
     bordercolor="#666666"
     borderopacity="1.0"
     inkscape:pageopacity="0.0"
     inkscape:pageshadow="2"
     inkscape:zoom="1.979899"
     inkscape:cx="139.84763"
     inkscape:cy="33.627455"
     inkscape:document-units="px"
     inkscape:current-layer="layer1"
     showgrid="false"
     fit-margin-top="0"
     fit-margin-left="0"
     fit-margin-right="0"
     fit-margin-bottom="0"
     inkscape:window-width="1437"
     inkscape:window-height="901"
     inkscape:window-x="2254"
     inkscape:window-y="112"
     inkscape:window-maximized="0" />
  <metadata
     id="metadata3999">
    <rdf:RDF>
      <cc:Work
         rdf:about="">
        <dc:format>image/svg+xml</dc:format>
        <dc:type
           rdf:resource="http://purl.org/dc/dcmitype/StillImage" />
        <dc:title></dc:title>
      </cc:Work>
    </rdf:RDF>
  </metadata>
  <g
     inkscape:label="Layer 1"
     inkscape:groupmode="layer"
     id="layer1"
     transform="translate(-408.61319,-475.33954)">
    <g
       id="g4189">
      <g
         transform="matrix(1.25,0,0,-1.25,432.62057,499.58617)"
         id="g84">
        <path
           inkscape:connector-curvature="0"
           id="path86"
           style="fill:#ffc000;fill-opacity:1;fill-rule:nonzero;stroke:none"
           d="m 0,0 -3.995,6.92 c -0.043,0.062 -0.228,0.169 -0.307,0.175 l -7.988,0 c -0.08,-0.007 -0.263,-0.113 -0.308,-0.178 l -3.995,-6.92 c -0.033,-0.069 -0.033,-0.282 0.002,-0.354 l 3.995,-6.919 c 0.043,-0.063 0.228,-0.169 0.307,-0.175 l 7.991,0 c 0.075,0.006 0.26,0.112 0.305,0.177 l 0.179,0.312 c 0.014,0.026 0.025,0.056 0.039,0.081 l 3.783,6.553 C 0.033,-0.246 0.032,-0.065 0,0" />
      </g>
      <g
         transform="matrix(1.25,0,0,-1.25,450.64995,488.20267)"
         id="g88">
        <path
           inkscape:connector-curvature="0"
           id="path90"
           style="fill:#ffc000;fill-opacity:1;fill-rule:nonzero;stroke:none"
           d="M 0,0 -3.997,6.923 C -4.1,7.101 -4.437,7.296 -4.642,7.296 l -7.994,0 c -0.205,0 -0.543,-0.195 -0.645,-0.373 L -17.278,0 c -0.103,-0.177 -0.103,-0.567 0,-0.744 l 3.997,-6.924 c 0.102,-0.177 0.44,-0.372 0.645,-0.372 l 7.994,0 c 0.205,0 0.542,0.195 0.645,0.372 L 0,-0.744 C 0.102,-0.567 0.102,-0.177 0,0" />
      </g>
      <g
         transform="matrix(1.25,0,0,-1.25,445.09907,500.37117)"
         id="g92">
        <path
           inkscape:connector-curvature="0"
           id="path94"
           style="fill:#ffc000;fill-opacity:1;fill-rule:nonzero;stroke:none"
           d="m 0,0 -7.989,0 c -0.08,-0.008 -0.262,-0.113 -0.307,-0.178 l -0.18,-0.313 C -8.49,-0.517 -8.5,-0.546 -8.515,-0.571 l -3.782,-6.552 c -0.026,-0.083 -0.024,-0.263 0.007,-0.329 l 3.995,-6.92 c 0.044,-0.062 0.228,-0.169 0.308,-0.175 l 7.99,0 c 0.076,0.006 0.26,0.113 0.305,0.178 l 3.996,6.92 c 0.032,0.069 0.032,0.282 -0.003,0.354 L 0.306,-0.176 C 0.263,-0.113 0.079,-0.006 0,0" />
      </g>
    </g>
    <g
       id="g4164">
      <g
         transform="matrix(1.25,0,0,-1.25,589.96782,499.24855)"
         id="g96">
        <path
           inkscape:connector-curvature="0"
           id="path98"
           style="fill:#231f20;fill-opacity:1;fill-rule:nonzero;stroke:none"
           d="m 0,0 c 0,4.98 3.753,9.048 8.908,9.048 3.016,0 5.225,-1.192 6.698,-2.595 L 14.344,5.015 C 13.046,6.242 11.292,7.189 8.908,7.189 4.945,7.189 2.069,3.928 2.069,0 c 0,-3.928 2.876,-7.189 6.839,-7.189 2.384,0 4.138,0.947 5.436,2.174 l 1.262,-1.437 C 14.133,-7.856 11.924,-9.048 8.908,-9.048 3.753,-9.048 0,-4.98 0,0" />
      </g>
      <path
         inkscape:connector-curvature="0"
         id="path100"
         style="fill:#231f20;fill-opacity:1;fill-rule:nonzero;stroke:none"
         d="m 613.77295,479.08308 2.49875,0 0,31.125 -2.49875,0 0,-31.125 z" />
      <g
         transform="matrix(1.25,0,0,-1.25,620.6087,499.24855)"
         id="g110">
        <path
           inkscape:connector-curvature="0"
           id="path112"
           style="fill:#231f20;fill-opacity:1;fill-rule:nonzero;stroke:none"
           d="m 0,0 c 0,4.98 3.753,9.048 9.083,9.048 5.331,0 9.084,-4.068 9.084,-9.048 0,-4.98 -3.753,-9.048 -9.084,-9.048 C 3.753,-9.048 0,-4.98 0,0 m 16.097,0 c 0,3.928 -2.77,7.189 -7.014,7.189 C 4.91,7.189 2.069,3.928 2.069,0 c 0,-3.928 2.841,-7.189 7.014,-7.189 4.244,0 7.014,3.261 7.014,7.189" />
      </g>
      <g
         transform="matrix(1.25,0,0,-1.25,662.91607,507.13917)"
         id="g114">
        <path
           inkscape:connector-curvature="0"
           id="path116"
           style="fill:#231f20;fill-opacity:1;fill-rule:nonzero;stroke:none"
           d="m 0,0 c -1.437,-2.034 -3.752,-2.736 -5.997,-2.736 -3.682,0 -6.453,2.526 -6.453,6.734 l 0,11.082 1.999,0 0,-10.801 c 0,-3.332 2.034,-5.156 4.98,-5.156 2.946,0 4.84,1.789 5.471,4.279 l 0,11.678 1.999,0 0,-17.535 L 0,-2.455 0,0 Z" />
      </g>
      <g
         transform="matrix(1.25,0,0,-1.25,688.50807,507.22705)"
         id="g118">
        <path
           inkscape:connector-curvature="0"
           id="path120"
           style="fill:#231f20;fill-opacity:1;fill-rule:nonzero;stroke:none"
           d="m 0,0 c -1.683,-1.789 -3.893,-2.665 -6.453,-2.665 -5.225,0 -8.908,4.068 -8.908,9.048 0,4.98 3.683,9.048 8.908,9.048 2.56,0 4.77,-0.877 6.453,-2.701 l 0,9.785 1.999,0 0,-24.9 L 0,-2.385 0,0 Z m 0,2.7 0,7.4 c -1.122,1.929 -3.367,3.472 -6.453,3.472 -4.033,0 -6.839,-3.261 -6.839,-7.189 0,-3.928 2.806,-7.19 6.839,-7.19 3.121,0 5.366,1.544 6.453,3.507" />
      </g>
    </g>
    <g
       id="g4175">
      <g
         transform="matrix(1.25,0,0,-1.25,472.52857,487.7138)"
         id="g122">
        <path
           inkscape:connector-curvature="0"
           id="path124"
           style="fill:#231f20;fill-opacity:1;fill-rule:nonzero;stroke:none"
           d="m 0,0 c -1.866,0 -3.563,-0.605 -4.729,-1.673 l 0,1.392 -4.227,0 0,-17.909 4.227,0 0,11.204 c 0.661,1.92 2.041,2.935 3.992,2.935 2.478,0 3.816,-1.93 3.816,-3.747 l 0,-10.392 4.226,0 0,10.463 C 7.305,-3.033 4.438,0 0,0" />
      </g>
      <g
         transform="matrix(1.25,0,0,-1.25,495.97883,487.71467)"
         id="g126">
        <path
           inkscape:connector-curvature="0"
           id="path128"
           style="fill:#231f20;fill-opacity:1;fill-rule:nonzero;stroke:none"
           d="m 0,0 c -5.226,0 -9.166,-3.97 -9.166,-9.235 0,-5.265 3.971,-9.236 9.236,-9.236 2.89,0 5.618,1.165 7.296,3.116 l 0.108,0.125 -2.846,3.038 -0.133,-0.149 c -0.65,-0.724 -2.089,-1.939 -4.425,-1.939 -2.466,0 -4.382,1.521 -4.834,3.809 l 13.333,0 0,1.244 C 8.319,-3.536 5.037,0 0,0 m -4.628,-7.122 c 0.652,1.931 2.371,3.212 4.347,3.212 2.235,0 3.717,-1.139 4.195,-3.212 l -8.542,0 z" />
      </g>
      <g
         transform="matrix(1.25,0,0,-1.25,520.61695,492.8653)"
         id="g130">
        <path
           inkscape:connector-curvature="0"
           id="path132"
           style="fill:#231f20;fill-opacity:1;fill-rule:nonzero;stroke:none"
           d="M 0,0 C 1.963,0 3.222,-0.977 3.931,-1.797 L 4.062,-1.947 6.954,1.022 6.836,1.149 C 5.047,3.093 2.683,4.121 0,4.121 c -5.265,0 -9.236,-3.971 -9.236,-9.236 0,-5.265 3.971,-9.236 9.236,-9.236 2.683,0 5.047,1.028 6.836,2.972 l 0.118,0.128 -2.892,2.968 -0.131,-0.15 C 3.222,-9.253 1.962,-10.23 0,-10.23 c -2.842,0 -4.905,2.151 -4.905,5.115 C -4.905,-2.151 -2.842,0 0,0" />
      </g>
      <g
         transform="matrix(1.25,0,0,-1.25,545.6077,492.82155)"
         id="g134">
        <path
           inkscape:connector-curvature="0"
           id="path136"
           style="fill:#231f20;fill-opacity:1;fill-rule:nonzero;stroke:none"
           d="m 0,0 0.931,3.805 -5.382,0 0,5.374 -4.227,-2.075 0,-3.299 -3.453,0 L -11.2,0 l 2.522,0 0,-8.588 c 0,-3.454 2.076,-5.516 5.552,-5.516 l 3.587,0 0,3.91 -2.605,0 c -1.962,0 -2.307,0.778 -2.307,2.413 L -4.451,0 0,0 Z" />
      </g>
      <g
         transform="matrix(1.25,0,0,-1.25,565.03582,489.45567)"
         id="g138">
        <path
           inkscape:connector-curvature="0"
           id="path140"
           style="fill:#231f20;fill-opacity:1;fill-rule:nonzero;stroke:none"
           d="m 0,0 c -1.272,0.913 -2.826,1.394 -4.519,1.394 -5.244,0 -9.2,-3.971 -9.2,-9.236 0,-5.265 3.956,-9.236 9.2,-9.236 1.718,0 3.271,0.469 4.519,1.359 l 0,-1.078 4.226,0 0,17.909 L 0,1.112 0,0 Z m 0,-4.916 0,-5.853 c -0.943,-1.395 -2.655,-2.259 -4.483,-2.259 -2.842,0 -4.904,2.181 -4.904,5.186 0,3.004 2.062,5.184 4.904,5.184 1.828,0 3.54,-0.863 4.483,-2.258" />
      </g>
      <g
         transform="matrix(1.25,0,0,-1.25,587.0567,487.89355)"
         id="g142">
        <path
           inkscape:connector-curvature="0"
           id="path144"
           style="fill:#231f20;fill-opacity:1;fill-rule:nonzero;stroke:none"
           d="m 0,0 c -0.396,0.072 -0.832,0.108 -1.296,0.108 -1.782,0 -3.241,-0.563 -4.343,-1.675 l 0,1.43 -4.226,0 0,-17.91 4.226,0 0,11.926 c 0.874,1.625 2.479,1.968 3.676,1.968 0.772,0 1.402,-0.079 1.872,-0.236 l 0.241,-0.08 0,4.442 L 0,0 Z" />
      </g>
    </g>
  </g>
</svg>
